<mxfile host="app.diagrams.net" agent="Mozilla/5.0 (Windows NT 10.0; Win64; x64) AppleWebKit/537.36 (KHTML, like Gecko) Chrome/132.0.0.0 Safari/537.36" version="26.0.14">
  <diagram name="1 oldal" id="8onvP7ZYu2YLWH1zNORK">
    <mxGraphModel dx="1434" dy="728" grid="0" gridSize="10" guides="1" tooltips="1" connect="1" arrows="1" fold="1" page="1" pageScale="1" pageWidth="827" pageHeight="1169" math="0" shadow="0">
      <root>
        <mxCell id="0" />
        <mxCell id="1" parent="0" />
        <mxCell id="weiak06-HauMyqDTACX4-24" value="" style="rounded=0;whiteSpace=wrap;html=1;" vertex="1" parent="1">
          <mxGeometry x="60" y="47" width="742" height="465" as="geometry" />
        </mxCell>
        <mxCell id="weiak06-HauMyqDTACX4-39" value="" style="shape=cube;whiteSpace=wrap;html=1;boundedLbl=1;backgroundOutline=1;darkOpacity=0.05;darkOpacity2=0.1;" vertex="1" parent="1">
          <mxGeometry x="83" y="167" width="120" height="80" as="geometry" />
        </mxCell>
        <mxCell id="weiak06-HauMyqDTACX4-16" value="" style="rounded=0;whiteSpace=wrap;html=1;" vertex="1" parent="1">
          <mxGeometry x="660" y="463" width="120" height="35" as="geometry" />
        </mxCell>
        <mxCell id="weiak06-HauMyqDTACX4-17" value="" style="rounded=0;whiteSpace=wrap;html=1;" vertex="1" parent="1">
          <mxGeometry x="89.5" y="70" width="51" height="25" as="geometry" />
        </mxCell>
        <mxCell id="weiak06-HauMyqDTACX4-18" value="" style="rounded=0;whiteSpace=wrap;html=1;" vertex="1" parent="1">
          <mxGeometry x="159.5" y="70" width="51" height="25" as="geometry" />
        </mxCell>
        <mxCell id="weiak06-HauMyqDTACX4-19" value="" style="rounded=0;whiteSpace=wrap;html=1;" vertex="1" parent="1">
          <mxGeometry x="229.5" y="70" width="51" height="25" as="geometry" />
        </mxCell>
        <mxCell id="weiak06-HauMyqDTACX4-20" value="Óra" style="text;html=1;align=center;verticalAlign=middle;whiteSpace=wrap;rounded=0;" vertex="1" parent="1">
          <mxGeometry x="85" y="70" width="60" height="30" as="geometry" />
        </mxCell>
        <mxCell id="weiak06-HauMyqDTACX4-21" value="Nap" style="text;html=1;align=center;verticalAlign=middle;whiteSpace=wrap;rounded=0;" vertex="1" parent="1">
          <mxGeometry x="155" y="70" width="60" height="30" as="geometry" />
        </mxCell>
        <mxCell id="weiak06-HauMyqDTACX4-22" value="Hét" style="text;html=1;align=center;verticalAlign=middle;whiteSpace=wrap;rounded=0;" vertex="1" parent="1">
          <mxGeometry x="227.5" y="70" width="60" height="30" as="geometry" />
        </mxCell>
        <mxCell id="weiak06-HauMyqDTACX4-25" value="&lt;font style=&quot;font-size: 16px;&quot;&gt;Pénz: xxxx&lt;/font&gt;" style="text;html=1;align=center;verticalAlign=middle;whiteSpace=wrap;rounded=0;" vertex="1" parent="1">
          <mxGeometry x="668.5" y="70" width="103" height="30" as="geometry" />
        </mxCell>
        <mxCell id="weiak06-HauMyqDTACX4-27" value="&lt;font style=&quot;font-size: 16px;&quot;&gt;Idő: xxxx&lt;/font&gt;" style="text;html=1;align=center;verticalAlign=middle;whiteSpace=wrap;rounded=0;" vertex="1" parent="1">
          <mxGeometry x="668.5" y="98" width="117.5" height="30" as="geometry" />
        </mxCell>
        <mxCell id="weiak06-HauMyqDTACX4-28" value="" style="rounded=0;whiteSpace=wrap;html=1;" vertex="1" parent="1">
          <mxGeometry x="60" y="138" width="19" height="60" as="geometry" />
        </mxCell>
        <mxCell id="weiak06-HauMyqDTACX4-29" value="&lt;font style=&quot;font-size: 16px;&quot;&gt;Bejárat&lt;/font&gt;" style="text;html=1;align=center;verticalAlign=middle;whiteSpace=wrap;rounded=0;" vertex="1" parent="1">
          <mxGeometry x="19" y="153" width="60" height="30" as="geometry" />
        </mxCell>
        <mxCell id="weiak06-HauMyqDTACX4-30" value="" style="rounded=0;whiteSpace=wrap;html=1;" vertex="1" parent="1">
          <mxGeometry x="60" y="210" width="19" height="60" as="geometry" />
        </mxCell>
        <mxCell id="weiak06-HauMyqDTACX4-33" value="&lt;font style=&quot;font-size: 16px;&quot;&gt;Bolt&lt;/font&gt;" style="text;html=1;align=center;verticalAlign=middle;whiteSpace=wrap;rounded=0;" vertex="1" parent="1">
          <mxGeometry x="684" y="465.5" width="60" height="30" as="geometry" />
        </mxCell>
        <mxCell id="weiak06-HauMyqDTACX4-36" value="" style="curved=1;endArrow=classic;html=1;rounded=0;" edge="1" parent="1" target="weiak06-HauMyqDTACX4-30">
          <mxGeometry width="50" height="50" relative="1" as="geometry">
            <mxPoint x="81" y="168" as="sourcePoint" />
            <mxPoint x="131" y="118" as="targetPoint" />
            <Array as="points">
              <mxPoint x="486" y="124" />
              <mxPoint x="804" y="205" />
              <mxPoint x="529" y="501" />
              <mxPoint x="344" y="400" />
              <mxPoint x="362" y="406" />
              <mxPoint x="281" y="406" />
              <mxPoint x="146" y="514" />
            </Array>
          </mxGeometry>
        </mxCell>
        <mxCell id="weiak06-HauMyqDTACX4-37" value="" style="endArrow=none;html=1;rounded=0;entryX=0.5;entryY=1;entryDx=0;entryDy=0;exitX=0.5;exitY=0;exitDx=0;exitDy=0;" edge="1" parent="1" source="weiak06-HauMyqDTACX4-30" target="weiak06-HauMyqDTACX4-28">
          <mxGeometry width="50" height="50" relative="1" as="geometry">
            <mxPoint x="387" y="357" as="sourcePoint" />
            <mxPoint x="437" y="307" as="targetPoint" />
          </mxGeometry>
        </mxCell>
        <mxCell id="weiak06-HauMyqDTACX4-40" value="&lt;font style=&quot;font-size: 16px;&quot;&gt;Safari menü&lt;/font&gt;" style="text;html=1;align=center;verticalAlign=middle;whiteSpace=wrap;rounded=0;" vertex="1" parent="1">
          <mxGeometry x="126" y="201" width="60" height="30" as="geometry" />
        </mxCell>
        <mxCell id="weiak06-HauMyqDTACX4-31" value="&lt;font style=&quot;font-size: 16px;&quot;&gt;Kijárat&lt;/font&gt;" style="text;html=1;align=center;verticalAlign=middle;whiteSpace=wrap;rounded=0;" vertex="1" parent="1">
          <mxGeometry x="17" y="225" width="60" height="30" as="geometry" />
        </mxCell>
        <mxCell id="weiak06-HauMyqDTACX4-41" value="" style="ellipse;whiteSpace=wrap;html=1;aspect=fixed;" vertex="1" parent="1">
          <mxGeometry x="508" y="376" width="34" height="34" as="geometry" />
        </mxCell>
        <mxCell id="weiak06-HauMyqDTACX4-42" value="" style="ellipse;whiteSpace=wrap;html=1;aspect=fixed;" vertex="1" parent="1">
          <mxGeometry x="342" y="164" width="34" height="34" as="geometry" />
        </mxCell>
        <mxCell id="weiak06-HauMyqDTACX4-43" value="" style="ellipse;whiteSpace=wrap;html=1;aspect=fixed;" vertex="1" parent="1">
          <mxGeometry x="181" y="383" width="34" height="34" as="geometry" />
        </mxCell>
        <mxCell id="weiak06-HauMyqDTACX4-47" value="Töltő" style="text;html=1;align=center;verticalAlign=middle;whiteSpace=wrap;rounded=0;" vertex="1" parent="1">
          <mxGeometry x="335.5" y="168" width="47" height="30" as="geometry" />
        </mxCell>
        <mxCell id="weiak06-HauMyqDTACX4-48" value="Töltő" style="text;html=1;align=center;verticalAlign=middle;whiteSpace=wrap;rounded=0;" vertex="1" parent="1">
          <mxGeometry x="174.5" y="387" width="47" height="30" as="geometry" />
        </mxCell>
        <mxCell id="weiak06-HauMyqDTACX4-49" value="Töltő" style="text;html=1;align=center;verticalAlign=middle;whiteSpace=wrap;rounded=0;" vertex="1" parent="1">
          <mxGeometry x="498" y="380" width="47" height="30" as="geometry" />
        </mxCell>
        <mxCell id="weiak06-HauMyqDTACX4-50" value="" style="shape=tape;whiteSpace=wrap;html=1;rotation=0;" vertex="1" parent="1">
          <mxGeometry x="467" y="208" width="139.25" height="39" as="geometry" />
        </mxCell>
        <mxCell id="weiak06-HauMyqDTACX4-51" value="Folyó" style="text;html=1;align=center;verticalAlign=middle;whiteSpace=wrap;rounded=0;" vertex="1" parent="1">
          <mxGeometry x="495" y="217" width="60" height="30" as="geometry" />
        </mxCell>
        <mxCell id="weiak06-HauMyqDTACX4-52" value="" style="triangle;whiteSpace=wrap;html=1;rotation=-90;" vertex="1" parent="1">
          <mxGeometry x="247.25" y="294.75" width="33" height="43.5" as="geometry" />
        </mxCell>
        <mxCell id="weiak06-HauMyqDTACX4-53" value="" style="triangle;whiteSpace=wrap;html=1;rotation=-90;" vertex="1" parent="1">
          <mxGeometry x="276" y="298" width="33" height="43.5" as="geometry" />
        </mxCell>
        <mxCell id="weiak06-HauMyqDTACX4-54" value="" style="triangle;whiteSpace=wrap;html=1;rotation=-90;" vertex="1" parent="1">
          <mxGeometry x="263" y="286" width="33" height="43.5" as="geometry" />
        </mxCell>
        <mxCell id="weiak06-HauMyqDTACX4-56" value="Dombok" style="text;html=1;align=center;verticalAlign=middle;whiteSpace=wrap;rounded=0;" vertex="1" parent="1">
          <mxGeometry x="249.5" y="273" width="60" height="30" as="geometry" />
        </mxCell>
        <mxCell id="weiak06-HauMyqDTACX4-57" value="" style="ellipse;shape=cloud;whiteSpace=wrap;html=1;" vertex="1" parent="1">
          <mxGeometry x="457" y="309" width="77" height="35" as="geometry" />
        </mxCell>
        <mxCell id="weiak06-HauMyqDTACX4-58" value="Bokor" style="text;html=1;align=center;verticalAlign=middle;whiteSpace=wrap;rounded=0;" vertex="1" parent="1">
          <mxGeometry x="471" y="314" width="60" height="30" as="geometry" />
        </mxCell>
      </root>
    </mxGraphModel>
  </diagram>
</mxfile>
